<svg width="14" height="15" viewBox="0 0 14 15" fill="none" xmlns="http://www.w3.org/2000/svg">
<path d="M1.505 11.3592L1.49333 11.3709C1.33583 11.0267 1.23667 10.6359 1.19583 10.2042C1.23667 10.63 1.3475 11.015 1.505 11.3592Z" fill="white"/>
<path d="M5.25 6.32502C6.01676 6.32502 6.63833 5.70344 6.63833 4.93669C6.63833 4.16993 6.01676 3.54836 5.25 3.54836C4.48324 3.54836 3.86167 4.16993 3.86167 4.93669C3.86167 5.70344 4.48324 6.32502 5.25 6.32502Z" fill="white"/>
<path d="M9.44417 1.43669H4.55583C2.4325 1.43669 1.16667 2.70252 1.16667 4.82586V9.71419C1.16667 10.35 1.2775 10.9042 1.49333 11.3709C1.995 12.4792 3.06833 13.1034 4.55583 13.1034H9.44417C11.5675 13.1034 12.8333 11.8375 12.8333 9.71419V8.37836V4.82586C12.8333 2.70252 11.5675 1.43669 9.44417 1.43669ZM11.8825 7.56169C11.4275 7.17086 10.6925 7.17086 10.2375 7.56169L7.81083 9.64419C7.35583 10.035 6.62083 10.035 6.16583 9.64419L5.9675 9.48086C5.55333 9.11919 4.89417 9.08419 4.4275 9.39919L2.24583 10.8634C2.1175 10.5367 2.04167 10.1575 2.04167 9.71419V4.82586C2.04167 3.18086 2.91083 2.31169 4.55583 2.31169H9.44417C11.0892 2.31169 11.9583 3.18086 11.9583 4.82586V7.62586L11.8825 7.56169Z" fill="white"/>
</svg>
