<svg width="12" height="12" viewBox="0 0 12 12" fill="none" xmlns="http://www.w3.org/2000/svg">
<path fill-rule="evenodd" clip-rule="evenodd" d="M6.47137 1.75696C7.51276 0.715562 9.2012 0.715563 10.2426 1.75696C11.284 2.79841 11.2838 4.48696 10.2425 5.52831L8.82839 6.94241C8.56804 7.20276 8.14593 7.20276 7.88558 6.94241C7.62523 6.68206 7.62523 6.25995 7.88558 5.9996L9.29968 4.5855C9.82043 4.06475 9.82044 3.22042 9.29979 2.69977C8.77909 2.17907 7.93487 2.17907 7.41417 2.69977L5.99996 4.11398C5.73961 4.37433 5.3175 4.37433 5.05715 4.11398C4.7968 3.85363 4.7968 3.43152 5.05715 3.17117L6.47137 1.75696ZM8.35696 3.64259C8.61731 3.90294 8.61731 4.32505 8.35696 4.5854L4.58572 8.35663C4.32537 8.61698 3.90326 8.61698 3.64291 8.35663C3.38256 8.09628 3.38256 7.67417 3.64291 7.41382L7.41415 3.64259C7.6745 3.38224 8.09661 3.38224 8.35696 3.64259ZM4.11434 5.05679C4.37469 5.31714 4.37469 5.73925 4.11434 5.9996L2.70013 7.41382C2.17943 7.93451 2.17943 8.77873 2.70013 9.29943C3.22078 9.82008 4.06511 9.82007 4.58586 9.29932L5.99996 7.88522C6.26031 7.62487 6.68242 7.62487 6.94277 7.88522C7.20312 8.14557 7.20312 8.56768 6.94277 8.82803L5.52867 10.2421C4.48732 11.2835 2.79877 11.2837 1.75732 10.2422C0.715923 9.20084 0.715923 7.5124 1.75732 6.47101L3.17153 5.05679C3.43188 4.79644 3.85399 4.79644 4.11434 5.05679Z" fill="#777E91"/>
</svg>
