<svg width="16" height="16" viewBox="0 0 16 16" fill="none" xmlns="http://www.w3.org/2000/svg">
<path fill-rule="evenodd" clip-rule="evenodd" d="M8.00001 13.3333C10.9455 13.3333 13.3333 10.9455 13.3333 8C13.3333 5.05448 10.9455 2.66666 8.00001 2.66666C5.05449 2.66666 2.66668 5.05448 2.66668 8C2.66668 10.9455 5.05449 13.3333 8.00001 13.3333ZM8.00001 14.6667C11.6819 14.6667 14.6667 11.6819 14.6667 8C14.6667 4.3181 11.6819 1.33333 8.00001 1.33333C4.31811 1.33333 1.33334 4.3181 1.33334 8C1.33334 11.6819 4.31811 14.6667 8.00001 14.6667Z" fill="#F90430"/>
<path fill-rule="evenodd" clip-rule="evenodd" d="M8.00001 4.66667C7.63182 4.66667 7.33334 4.96515 7.33334 5.33334C7.33334 5.70153 7.63182 6.00001 8.00001 6.00001C8.3682 6.00001 8.66668 5.70153 8.66668 5.33334C8.66668 4.96515 8.3682 4.66667 8.00001 4.66667ZM8.00001 7.33334C7.63182 7.33334 7.33334 7.63182 7.33334 8V10.6667C7.33334 11.0349 7.63182 11.3333 8.00001 11.3333C8.3682 11.3333 8.66668 11.0349 8.66668 10.6667V8C8.66668 7.63182 8.3682 7.33334 8.00001 7.33334Z" fill="#F90430"/>
</svg>
